<svg width="116" height="25" viewBox="0 0 116 25" fill="none" xmlns="http://www.w3.org/2000/svg">
<path d="M13.724 6.828H8.936V4.992C8.936 4.8 8.864 4.632 8.72 4.488C8.6 4.344 8.444 4.272 8.252 4.272H6.272C6.08 4.272 5.912 4.344 5.768 4.488C5.648 4.632 5.588 4.8 5.588 4.992V9.132C5.588 9.324 5.648 9.492 5.768 9.636C5.912 9.78 6.08 9.852 6.272 9.852H9.512C12.488 9.9 13.976 11.484 13.976 14.604V19.608C13.976 22.776 12.488 24.36 9.512 24.36H5.264C2.288 24.36 0.8 22.776 0.8 19.608V17.196H5.588V19.788C5.588 19.98 5.648 20.148 5.768 20.292C5.912 20.436 6.08 20.508 6.272 20.508H8.504C8.696 20.508 8.852 20.436 8.972 20.292C9.116 20.148 9.188 19.98 9.188 19.788V15.216C9.188 15.024 9.116 14.856 8.972 14.712C8.852 14.568 8.696 14.496 8.504 14.496H5.264C2.288 14.496 0.8 12.912 0.8 9.744V5.1C0.8 1.932 2.288 0.348 5.264 0.348H9.26C12.236 0.348 13.724 1.932 13.724 5.1V6.828ZM27.4043 0.707999H32.4443V19.608C32.4443 22.776 30.9563 24.36 27.9803 24.36H23.5163C20.5403 24.36 19.0523 22.776 19.0523 19.608V0.707999H24.0923V20.04C24.0923 20.232 24.1523 20.4 24.2723 20.544C24.4163 20.688 24.5843 20.76 24.7763 20.76H26.7203C26.9123 20.76 27.0683 20.688 27.1883 20.544C27.3323 20.4 27.4043 20.232 27.4043 20.04V0.707999ZM49.069 11.256C50.629 11.808 51.409 13.08 51.409 15.072V19.248C51.409 22.416 49.921 24 46.945 24H37.693V0.707999H46.657C49.633 0.707999 51.121 2.292 51.121 5.46V7.584C51.121 9.504 50.437 10.728 49.069 11.256ZM45.397 4.128H42.733V10.356H45.397C45.589 10.356 45.745 10.284 45.865 10.14C46.009 9.996 46.081 9.828 46.081 9.636V4.848C46.081 4.656 46.009 4.488 45.865 4.344C45.745 4.2 45.589 4.128 45.397 4.128ZM46.369 19.824V14.604C46.369 14.412 46.297 14.244 46.153 14.1C46.033 13.956 45.877 13.884 45.685 13.884H42.733V20.544H45.685C45.877 20.544 46.033 20.472 46.153 20.328C46.297 20.184 46.369 20.016 46.369 19.824ZM64.9652 0.707999H70.0052V19.608C70.0052 22.776 68.5172 24.36 65.5412 24.36H61.0772C58.1012 24.36 56.6132 22.776 56.6132 19.608V0.707999H61.6532V20.04C61.6532 20.232 61.7132 20.4 61.8332 20.544C61.9772 20.688 62.1452 20.76 62.3372 20.76H64.2812C64.4732 20.76 64.6292 20.688 64.7492 20.544C64.8932 20.4 64.9652 20.232 64.9652 20.04V0.707999ZM83.8579 0.707999H88.3219L91.0219 18.24L93.0379 0.707999H97.9339L94.1539 24H88.4299L86.0899 9.708L83.7499 24H78.0259L74.2459 0.707999H79.1419L81.1579 18.24L83.8579 0.707999ZM110.823 0.707999H115.863V19.608C115.863 22.776 114.375 24.36 111.399 24.36H106.935C103.959 24.36 102.471 22.776 102.471 19.608V0.707999H107.511V20.04C107.511 20.232 107.571 20.4 107.691 20.544C107.835 20.688 108.003 20.76 108.195 20.76H110.139C110.331 20.76 110.487 20.688 110.607 20.544C110.751 20.4 110.823 20.232 110.823 20.04V0.707999Z" fill="black"/>
</svg>
